<?xml version="1.0" standalone="no"?>
<!DOCTYPE svg PUBLIC "-//W3C//DTD SVG 20010904//EN"
 "http://www.w3.org/TR/2001/REC-SVG-20010904/DTD/svg10.dtd">
<svg version="1.0" xmlns="http://www.w3.org/2000/svg"
 width="2079.000000pt" height="1464.000000pt" viewBox="0 0 2079.000000 1464.000000"
 preserveAspectRatio="xMidYMid meet">

<g transform="translate(0.000000,1464.000000) scale(0.100000,-0.100000)"
fill="#000000" stroke="none">
<path d="M2528 14623 l-116 -4 -5 -482 c-4 -474 -9 -544 -39 -572 -14 -14
-1007 -150 -1017 -139 -3 3 -6 227 -6 498 0 462 -1 494 -19 520 -17 27 -21 28
-80 23 -88 -7 -494 -144 -641 -216 -202 -98 -289 -192 -314 -335 -6 -34 -15
-194 -21 -356 -6 -162 -17 -466 -25 -675 -8 -209 -17 -468 -20 -575 -4 -107
-17 -381 -31 -608 -24 -411 -33 -926 -16 -936 5 -3 43 21 85 53 310 238 921
388 1897 467 266 21 1095 30 1386 15 942 -51 1674 -214 1962 -437 88 -68 155
-114 166 -114 10 0 4 214 -19 715 -33 695 -45 1009 -55 1385 -11 437 -27 833
-40 1012 -6 83 -15 128 -29 156 -22 44 -96 120 -156 162 -136 94 -433 206
-701 264 -66 15 -127 28 -136 30 -17 4 -18 -11 -19 -202 -1 -114 -4 -349 -8
-522 l-6 -315 -25 3 c-135 13 -1005 114 -1008 116 -1 2 -8 32 -13 67 -8 44 -8
150 -3 334 16 479 9 589 -37 631 -43 39 -350 51 -891 37z"/>
<path d="M17448 14621 c-48 -3 -90 -10 -95 -15 -4 -4 -11 -222 -14 -484 -6
-473 -10 -535 -42 -560 -6 -5 -68 -17 -137 -26 -223 -29 -794 -105 -836 -111
l-42 -6 -7 515 -7 515 -47 7 c-54 8 -186 -22 -399 -92 -217 -71 -366 -149
-485 -254 -64 -57 -94 -111 -107 -195 -11 -73 -125 -3144 -116 -3152 8 -8 46
17 120 77 39 32 108 76 154 99 162 81 474 172 822 240 1162 226 2924 168 3835
-126 154 -50 252 -98 381 -185 104 -71 165 -108 179 -108 8 0 6 386 -5 686 -6
153 -24 563 -41 909 -17 347 -34 819 -39 1050 -7 375 -10 429 -29 503 -45 179
-89 227 -317 340 -211 106 -491 197 -661 217 l-51 5 -6 -72 c-3 -40 -8 -271
-11 -513 -4 -242 -8 -442 -11 -445 -5 -5 -1025 107 -1031 114 -2 2 -8 236 -13
521 -5 284 -10 518 -12 520 -26 22 -80 25 -445 29 -219 3 -437 1 -485 -3z"/>
<path d="M10125 13268 c-4 -13 -10 -136 -14 -275 -3 -138 -9 -255 -13 -258 -4
-4 -125 -22 -270 -39 l-263 -32 -6 66 c-4 36 -7 112 -8 170 -1 58 -4 149 -8
203 l-6 97 -59 0 c-88 0 -178 -27 -302 -89 -127 -64 -167 -105 -185 -193 -7
-29 -18 -226 -26 -438 -22 -588 -34 -851 -60 -1395 -28 -559 -45 -1021 -45
-1196 l0 -117 28 -7 c15 -4 88 -7 162 -6 74 0 140 -3 146 -7 31 -20 34 -54 35
-439 1 -213 4 -401 8 -418 6 -28 10 -31 81 -43 78 -14 321 -10 390 6 l35 8 5
431 c3 237 8 435 12 439 4 4 45 10 90 15 101 9 980 11 1096 2 l83 -6 -2 -396
c-3 -375 -2 -399 17 -436 29 -60 59 -76 150 -82 77 -4 328 18 341 31 11 11 22
286 22 574 l1 273 25 24 c24 24 28 25 180 25 l155 0 0 213 c0 248 -10 497 -50
1307 -16 327 -34 732 -40 900 -19 544 -29 724 -40 764 -24 81 -146 165 -326
225 -49 16 -117 33 -152 37 l-62 7 2 -224 c2 -244 -6 -290 -54 -307 -13 -5
-68 -5 -123 -1 -123 10 -378 48 -387 57 -3 4 -8 113 -11 242 -3 139 -9 250
-16 273 l-12 37 -258 0 -259 0 -7 -22z m369 -1691 c20 -16 46 -47 59 -70 21
-39 22 -56 25 -277 2 -129 1 -259 -3 -287 -8 -66 -12 -67 -187 -68 -126 0
-128 0 -155 28 l-28 27 -3 237 c-4 311 10 370 98 423 52 31 144 24 194 -13z"/>
<path d="M17426 11029 c-653 -29 -1268 -126 -1677 -263 -193 -64 -265 -98
-273 -129 -12 -50 -36 -349 -46 -592 -6 -137 -17 -356 -25 -485 -22 -359 -33
-565 -60 -1200 -39 -916 -55 -1184 -110 -1915 -38 -512 -71 -1089 -125 -2235
-55 -1155 -70 -1442 -100 -1870 -45 -652 -54 -842 -54 -1215 -1 -278 2 -391
12 -421 26 -88 160 -196 365 -295 361 -173 914 -295 1597 -353 1145 -97 2221
-30 3006 189 469 131 721 269 803 439 50 101 51 38 -38 1688 -45 843 -89 1619
-97 1723 -27 364 -64 1046 -109 1985 -43 908 -79 1587 -90 1735 -17 215 -135
2528 -135 2643 0 202 -6 211 -225 293 -561 211 -1618 324 -2619 278z m537
-1380 c57 -15 112 -71 138 -137 20 -52 23 -81 29 -352 3 -162 4 -351 1 -420
l-6 -125 -258 1 c-142 1 -261 5 -265 9 -12 12 -15 662 -3 764 17 148 70 234
158 261 40 12 162 12 206 -1z m25 -3278 c49 -25 96 -80 119 -140 15 -40 18
-95 21 -446 2 -219 0 -410 -3 -424 l-6 -24 -255 6 c-141 3 -259 8 -262 12 -12
12 -15 700 -3 787 20 147 68 216 170 245 62 17 169 10 219 -16z"/>
<path d="M2495 11023 c-635 -31 -1188 -108 -1598 -224 -260 -74 -337 -114
-367 -194 -12 -31 -21 -174 -40 -600 -5 -132 -32 -611 -60 -1065 -92 -1521
-125 -2162 -155 -2960 -25 -668 -36 -883 -110 -2060 -55 -877 -80 -1355 -100
-1870 -8 -217 -22 -492 -30 -610 -26 -367 -33 -566 -23 -622 5 -29 21 -77 35
-107 31 -64 142 -180 225 -234 346 -226 943 -368 1848 -439 224 -18 1181 -18
1425 0 454 33 808 78 1150 147 543 109 900 254 1066 432 38 40 49 61 57 104
34 177 19 695 -48 1684 -29 424 -39 608 -160 2870 -168 3132 -214 3973 -265
4795 -31 495 -39 575 -56 597 -34 40 -261 120 -524 183 -359 87 -777 142
-1285 170 -164 9 -824 11 -985 3z m511 -1368 c64 -19 118 -65 152 -129 l27
-51 3 -433 3 -434 -238 4 c-259 4 -288 10 -297 57 -20 106 -13 651 10 784 11
65 63 138 123 174 75 45 135 53 217 28z m40 -3280 c74 -31 114 -88 134 -195
11 -59 15 -751 5 -792 -6 -22 -16 -29 -58 -39 -93 -24 -414 -16 -457 11 -13 8
-15 63 -18 370 -2 215 1 388 7 427 20 129 80 208 176 232 53 14 163 6 211 -14z"/>
<path d="M8268 9553 c-60 -2 -109 -5 -110 -6 -1 -1 -4 -192 -7 -424 -5 -365
-8 -424 -22 -438 -10 -10 -49 -19 -110 -26 -123 -14 -650 -6 -702 10 -70 22
-72 35 -72 436 0 193 -4 371 -9 398 l-8 47 -429 0 -429 0 -7 -27 c-8 -30 -9
-233 -2 -553 4 -183 3 -197 -17 -230 -11 -19 -35 -45 -54 -57 -31 -21 -44 -23
-189 -23 -86 0 -228 -3 -315 -7 l-159 -6 6 -221 c4 -122 16 -345 26 -496 11
-151 27 -428 36 -615 18 -417 29 -595 60 -1070 41 -625 63 -1037 115 -2185 51
-1129 83 -1717 121 -2215 11 -148 24 -427 27 -620 7 -321 9 -353 27 -390 14
-27 33 -46 60 -59 48 -24 80 -24 810 -13 510 8 546 10 559 44 30 76 37 549 27
1833 -4 564 2 718 40 970 108 711 511 1378 1104 1825 408 307 870 493 1400
561 176 23 533 23 708 0 656 -85 1228 -366 1693 -830 223 -224 390 -453 530
-729 198 -391 276 -689 304 -1161 6 -102 10 -631 10 -1245 0 -885 3 -1082 15
-1161 8 -52 15 -97 15 -100 0 -3 314 -4 699 -2 l699 2 11 93 c31 252 74 991
146 2472 47 973 64 1300 70 1365 7 77 59 906 95 1520 60 1048 97 1787 107
2178 l6 262 -230 0 c-126 0 -284 3 -351 7 l-121 6 -12 71 c-9 51 -10 168 -6
423 l6 353 -25 17 c-23 15 -69 17 -378 21 -372 5 -448 -1 -481 -38 -16 -18
-18 -53 -19 -404 0 -211 -4 -388 -8 -392 -14 -13 -804 -59 -835 -48 -16 5 -35
24 -46 44 -16 32 -17 68 -15 410 1 206 -1 385 -5 398 l-8 22 -429 0 c-332 0
-431 -3 -437 -12 -4 -7 -10 -193 -13 -413 -4 -288 -8 -406 -17 -421 -16 -29
-36 -32 -260 -46 -255 -16 -565 -1 -594 29 -34 33 -39 110 -27 413 12 300 4
414 -28 441 -18 15 -716 20 -797 6 -84 -15 -82 -3 -82 -447 0 -212 -4 -397 -9
-412 l-8 -28 -423 0 c-328 0 -426 3 -432 13 -4 6 -8 188 -8 402 0 434 -3 455
-61 469 -33 9 -561 15 -726 9z"/>
<path d="M10080 5803 c-171 -14 -450 -77 -617 -139 -109 -40 -253 -112 -296
-148 l-29 -23 45 -89 c25 -49 96 -177 158 -286 63 -108 122 -210 132 -228 16
-30 20 -32 54 -25 20 3 93 29 161 56 139 56 269 90 430 114 59 8 122 18 141
21 l34 5 -7 367 c-4 202 -10 370 -12 374 -5 8 -105 8 -194 1z"/>
<path d="M10529 5803 l-37 -4 5 -362 c3 -199 8 -365 12 -369 3 -3 76 -18 161
-33 192 -32 269 -53 435 -114 185 -69 168 -67 203 -25 41 49 196 310 277 467
76 146 77 138 -19 192 -132 73 -402 163 -633 210 -110 22 -316 47 -353 43 -8
-1 -31 -3 -51 -5z"/>
<path d="M8874 5350 c-97 -51 -183 -119 -313 -245 -111 -107 -404 -444 -429
-491 -5 -11 -12 -37 -15 -60 l-7 -40 68 -32 c38 -17 140 -74 227 -127 87 -53
181 -108 209 -122 70 -36 160 -65 164 -54 2 5 20 36 40 70 78 128 193 245 420
424 39 32 72 61 72 65 0 15 -123 258 -176 350 -64 108 -168 265 -188 281 -10
9 -28 4 -72 -19z"/>
<path d="M11773 5278 c-114 -176 -293 -492 -293 -515 0 -20 75 -96 149 -150
109 -80 163 -134 256 -258 45 -60 99 -125 119 -144 35 -34 36 -34 76 -21 98
32 589 324 590 350 0 23 -87 153 -181 270 -104 130 -328 357 -433 439 -77 61
-182 121 -210 121 -8 0 -41 -42 -73 -92z"/>
<path d="M9943 4810 c-39 -16 -43 -40 -43 -248 0 -181 -2 -201 -17 -208 -31
-13 -368 -17 -468 -5 -96 11 -136 23 -168 50 -16 14 -25 8 -107 -74 -50 -49
-90 -95 -90 -101 0 -6 9 -19 19 -28 28 -26 32 -90 22 -415 -7 -231 -11 -295
-22 -302 -8 -5 -91 -9 -185 -9 -206 0 -214 -3 -222 -92 l-4 -56 215 -4 c118
-1 218 -6 222 -9 3 -4 9 -124 12 -267 4 -187 3 -282 -7 -338 -19 -124 2 -114
-245 -114 l-215 0 0 -52 c0 -103 -19 -95 231 -100 120 -2 221 -7 225 -10 7 -8
-9 -694 -17 -703 -4 -3 -103 -11 -220 -18 l-214 -12 0 -50 0 -50 80 -8 c44 -4
138 -13 209 -20 l129 -12 15 -40 c12 -30 17 -103 22 -280 6 -204 10 -250 28
-305 37 -114 42 -115 90 -19 55 112 67 211 50 422 -8 102 -9 154 -2 165 30 49
160 70 448 73 123 1 141 -1 158 -18 30 -30 40 -129 33 -313 -5 -131 -4 -180 9
-238 15 -70 61 -172 77 -172 11 0 43 63 59 115 8 24 15 139 19 290 8 295 10
303 86 323 28 8 127 16 220 19 139 5 181 3 225 -10 63 -19 110 -57 110 -90 0
-12 1 -123 3 -247 4 -216 5 -229 34 -324 l29 -99 28 36 c65 85 85 201 84 487
0 96 4 189 9 205 l10 30 164 -3 c90 -1 221 -5 290 -8 l126 -6 13 -67 c6 -36
15 -165 20 -286 8 -229 17 -278 66 -352 l17 -26 23 39 c40 65 54 156 55 346 0
119 6 201 17 263 l17 90 40 6 c22 4 105 10 185 13 209 10 200 7 200 71 l0 53
-50 11 c-28 6 -130 11 -225 11 l-175 0 0 355 0 356 178 -2 c151 -2 182 0 210
15 53 27 85 128 45 140 -10 2 -107 8 -216 12 -175 6 -199 8 -207 24 -19 35
-31 335 -20 484 14 201 14 199 86 209 32 4 77 6 100 3 39 -5 229 24 253 38 8
5 9 20 5 44 -13 73 -3 70 -219 74 -157 2 -198 6 -205 17 -15 26 -22 169 -18
411 3 234 3 235 30 284 l27 49 -87 93 c-48 52 -92 94 -99 94 -7 0 -29 -14 -49
-32 -47 -42 -83 -46 -375 -47 l-236 -1 -7 92 c-3 50 -6 149 -6 220 l0 129 -42
19 c-24 11 -57 20 -75 20 -53 0 -58 -19 -58 -247 0 -135 -4 -206 -11 -213 -20
-20 -294 -34 -444 -22 -75 6 -144 14 -153 18 -15 5 -17 25 -17 168 0 88 -3
191 -7 229 l-6 67 -51 -1 c-28 0 -61 -4 -73 -9z m-123 -619 c66 -20 72 -29 82
-132 9 -90 3 -439 -8 -526 -6 -42 -6 -42 -63 -55 -79 -18 -513 -17 -535 1 -28
24 -36 84 -36 291 0 233 13 376 36 401 9 10 39 22 68 28 64 12 409 7 456 -8z
m828 -11 c57 -21 59 -35 63 -357 l4 -291 -24 -26 c-13 -14 -39 -29 -58 -32
-19 -4 -148 -3 -288 1 l-253 7 -7 27 c-10 39 -18 502 -10 578 5 51 12 71 32
91 l25 25 241 -6 c154 -3 254 -9 275 -17z m839 -6 c15 -11 30 -34 33 -50 7
-35 -3 -630 -10 -637 -3 -3 -138 -9 -300 -13 -277 -6 -296 -6 -310 11 -12 15
-16 72 -21 304 -3 157 -2 301 2 320 10 43 37 71 80 81 19 5 138 8 266 7 218
-2 233 -3 260 -23z m-1657 -866 c31 -9 49 -22 58 -40 27 -56 24 -631 -4 -658
-33 -32 -429 -45 -525 -17 -97 29 -94 17 -94 341 1 323 6 359 58 375 58 18 80
19 272 16 128 -2 205 -7 235 -17z m883 -108 c10 -153 2 -504 -13 -557 -12 -41
-13 -42 -69 -50 -98 -14 -451 -9 -496 8 -65 23 -70 51 -68 393 1 197 5 292 13
300 9 9 431 24 595 22 l30 -1 8 -115z m805 -242 l-3 -353 -309 -8 c-169 -5
-309 -7 -311 -5 -2 2 -5 164 -7 361 l-4 357 318 0 318 0 -2 -352z m-1684 -529
c32 -4 60 -10 63 -12 2 -2 5 -141 6 -308 2 -317 -3 -368 -41 -388 -9 -4 -135
-8 -279 -7 -299 1 -294 0 -312 87 -12 53 -15 535 -5 587 5 27 12 32 48 38 127
22 383 24 520 3z m871 -349 l0 -355 -307 -3 c-288 -2 -308 -1 -309 15 -7 231
-15 679 -12 683 4 4 492 17 593 16 l35 -1 0 -355z m688 353 l127 -6 0 -287 c0
-158 -3 -314 -6 -347 l-7 -60 -299 -8 c-220 -5 -303 -4 -312 5 -13 13 -22 518
-11 636 l7 74 186 0 c103 0 244 -3 315 -7z"/>
<path d="M7975 4309 c-115 -138 -278 -701 -279 -967 -1 -109 0 -114 24 -134
23 -19 34 -20 159 -14 74 3 227 6 341 6 l207 0 11 38 c6 20 25 114 42 209 23
134 42 206 85 323 30 82 57 167 60 187 l6 38 -227 125 c-125 69 -267 146 -315
173 l-87 47 -27 -31z"/>
<path d="M12720 4316 c-79 -33 -488 -277 -532 -317 l-38 -34 50 -130 c75 -197
101 -309 125 -538 9 -77 28 -97 98 -98 224 -3 650 0 655 6 4 4 9 61 10 128 6
206 -53 439 -210 830 -51 126 -76 177 -87 177 -9 0 -41 -11 -71 -24z"/>
<path d="M12383 2989 c-45 -23 -48 -57 -48 -499 0 -228 4 -436 8 -462 l8 -48
374 0 374 0 -5 128 c-2 70 -7 297 -10 505 l-6 377 -242 0 c-132 0 -284 2 -336
5 -61 3 -103 1 -117 -6z"/>
<path d="M7828 2983 l-138 -4 0 -499 0 -500 374 0 374 0 7 145 c9 175 0 776
-12 825 l-9 35 -229 0 c-127 1 -292 -1 -367 -2z"/>
<path d="M7859 1763 l-167 -3 -7 -163 c-4 -89 -5 -297 -3 -462 3 -259 6 -304
21 -332 9 -17 25 -34 34 -36 10 -3 170 -5 356 -5 l337 -1 0 505 0 504 -202 -2
c-112 -1 -278 -4 -369 -5z"/>
<path d="M12394 1763 l-41 -4 -6 -157 c-4 -86 -7 -299 -7 -472 0 -353 0 -351
70 -370 28 -7 79 -7 177 1 76 6 182 8 236 4 54 -4 136 -4 183 0 l84 7 0 499 0
499 -327 -2 c-181 -1 -346 -3 -369 -5z"/>
</g>
</svg>
